<svg width="23" height="23" viewBox="0 0 23 23" fill="none" xmlns="http://www.w3.org/2000/svg">
<path d="M1.8335 1.875H5.50016L7.95683 14.1492C8.04065 14.5712 8.27024 14.9503 8.60541 15.2201C8.94058 15.4899 9.35997 15.6332 9.79016 15.625H18.7002C19.1304 15.6332 19.5497 15.4899 19.8849 15.2201C20.2201 14.9503 20.4497 14.5712 20.5335 14.1492L22.0002 6.45833H6.41683M10.0835 20.2083C10.0835 20.7146 9.67309 21.125 9.16683 21.125C8.66057 21.125 8.25016 20.7146 8.25016 20.2083C8.25016 19.7021 8.66057 19.2917 9.16683 19.2917C9.67309 19.2917 10.0835 19.7021 10.0835 20.2083ZM20.1668 20.2083C20.1668 20.7146 19.7564 21.125 19.2502 21.125C18.7439 21.125 18.3335 20.7146 18.3335 20.2083C18.3335 19.7021 18.7439 19.2917 19.2502 19.2917C19.7564 19.2917 20.1668 19.7021 20.1668 20.2083Z" stroke="#2C2D35" stroke-width="2" stroke-linecap="round" stroke-linejoin="round"/>
</svg>
