<svg width="80" height="79" viewBox="0 0 80 79" fill="none" xmlns="http://www.w3.org/2000/svg">
<path d="M44.1259 21.37L44.7706 23.75L46.5995 22.0964L58.5743 11.2672L53.6991 26.6595L52.955 29.01L55.3872 28.6075L71.317 25.9715L58.8933 36.2849L56.9965 37.8598L59.2604 38.8362L74.0858 45.2312L58.0596 47.1899L55.6116 47.4891L56.9887 49.5345L66.0028 62.9297L51.4619 55.9137L49.2413 54.8418L49.2935 57.3065L49.635 73.4498L41.1947 59.6845L39.9063 57.5821L38.6178 59.6845L30.1765 73.4498L30.5191 57.3065L30.5712 54.8418L28.3507 55.9137L13.8088 62.9297L22.8239 49.5345L24.2009 47.4891L21.753 47.1899L5.72575 45.2312L20.5521 38.8362L22.816 37.8598L20.9193 36.2849L8.49456 25.9715L24.4253 28.6075L26.8575 29.01L26.1134 26.6595L21.2372 11.2672L33.2131 22.0964L35.0419 23.75L35.6866 21.37L39.9063 5.78567L44.1259 21.37Z" stroke="#EEDB6D" stroke-width="3"/>
</svg>
